# xmcd
#
# Track frame offsets:
#	150
#	21222
#	42583
#	67438
#	81742
#	108463
#	128916
#	149060
#	165186
#
# Disc length: 2631 seconds
#
# Revision: 1
# Processed by: cddbd v1.5.2PL0 Copyright (c) Steve Scherf et al.
# Submitted via: audiograbber 1.83.01
#
DISCID=8b0a4509
DTITLE=Joanne Shaw Taylor - Sanctuary
DYEAR=2008
DGENRE=Blues
TTITLE0=Heavy Heart
TTITLE1=Kiss The Ground Goodbye
TTITLE2=Shiver And Sigh
TTITLE3=Feels Like Home
TTITLE4=Sanctuary
TTITLE5=Will You Be The One?
TTITLE6=Piece Of The Sky
TTITLE7=Who Do You Want Me To Be?
TTITLE8=Jesus
EXTD=
EXTT0=
EXTT1=
EXTT2=
EXTT3=
EXTT4=
EXTT5=
EXTT6=
EXTT7=
EXTT8=
PLAYORDER=
